PathFileType	4	(X/Y/Z)	C:/Users/opensim2020/Desktop/walking_exp_matlab/subject03_walking14_straight_03.trc	
DataRate	CameraRate	NumFrames	NumMarkers	Units	OrigDataRate	OrigDataStartFrame	OrigNumFrames	
100.00	100.00	4	47	mm	100.00	1689	215	
Frame#	Time	LFHD			RFHD			LBHD			RBHD			C7			T10			CLAV			STRN			RBAK			LSHO			LUPA			LELB			LFRM			LWRA			LWRB			LFIN			RSHO			RUPA			RELB			RFRM			RWRA			RWRB			RFIN			LASI			RASI			LPSI			RPSI			LTHI			LKNE			LTIB			LANK			LHEE			LTOE			RTHI			RKNE			RTIB			RANK			RHEE			RTOE			*39			*40			*41			*42			*43			*44			*45			*46			
		X1	Y1	Z1	X2	Y2	Z2	X3	Y3	Z3	X4	Y4	Z4	X5	Y5	Z5	X6	Y6	Z6	X7	Y7	Z7	X8	Y8	Z8	X9	Y9	Z9	X10	Y10	Z10	X11	Y11	Z11	X12	Y12	Z12	X13	Y13	Z13	X14	Y14	Z14	X15	Y15	Z15	X16	Y16	Z16	X17	Y17	Z17	X18	Y18	Z18	X19	Y19	Z19	X20	Y20	Z20	X21	Y21	Z21	X22	Y22	Z22	X23	Y23	Z23	X24	Y24	Z24	X25	Y25	Z25	X26	Y26	Z26	X27	Y27	Z27	X28	Y28	Z28	X29	Y29	Z29	X30	Y30	Z30	X31	Y31	Z31	X32	Y32	Z32	X33	Y33	Z33	X34	Y34	Z34	X35	Y35	Z35	X36	Y36	Z36	X37	Y37	Z37	X38	Y38	Z38	X39	Y39	Z39	X40	Y40	Z40	X41	Y41	Z41	X42	Y42	Z42	X43	Y43	Z43	X44	Y44	Z44	X45	Y45	Z45	X46	Y46	Z46	X47	Y47	Z47	

108	1.070	1369.23047	-183.92110	1617.39038	1502.24219	-178.01880	1620.49487	1380.05737	-301.69788	1552.51965	1510.38232	-291.25128	1555.97546	1417.19543	-316.67706	1409.33606	1405.56335	-359.76453	1098.84619	1426.45728	-195.45837	1331.54883	1414.78662	-155.03810	1165.93396	1495.09985	-381.69931	1232.06433	1271.40845	-222.21111	1378.93469	1190.56458	-170.05214	1201.93018	1180.93811	-111.54650	1093.70349	1200.96448	-23.04777	1001.67365	1250.53308	49.41734	917.09454	1196.68103	40.74194	906.90851	1217.78113	102.32922	856.49207	1581.04102	-262.06339	1348.61853	1649.60242	-298.12543	1129.19287	1665.47400	-300.44501	1016.57678	1672.24866	-309.48618	879.78064	1644.40503	-292.99954	778.52783	1682.57471	-331.37109	781.52887	1678.12244	-320.87396	707.23315	1291.81787	-199.18541	930.61407	1529.10767	-200.94965	929.63989	1342.83569	-360.02679	961.10199	1490.91797	-361.58432	959.99133	1257.17163	-300.23853	635.94098	1296.46143	-335.85034	462.80893	1293.78015	-432.50375	287.62875	1336.42078	-501.42001	87.75529	1372.57581	-548.64758	60.96030	1359.76489	-356.69165	34.22727	1577.96960	-182.51373	642.88983	1542.18335	-100.41472	484.04926	1546.63196	-104.72581	292.98318	1501.86694	-84.54500	77.07037	1447.14075	-122.58683	41.10362	1488.45447	55.14521	56.21460				1426.93091	-273.04880	1663.28491																		 
109	1.080	1370.15015	-170.32559	1615.47205	1503.24365	-164.39027	1618.41003	1380.92664	-288.25787	1550.69006	1511.27075	-277.73303	1554.02197	1417.86719	-303.30643	1407.47241	1406.66174	-346.61810	1096.91016	1426.85156	-182.09346	1329.57080	1414.60547	-141.80847	1163.91907	1495.46277	-367.93225	1229.92139	1272.06458	-209.03886	1377.34656	1191.23389	-154.95996	1201.76624	1181.80054	-94.48613	1094.76758	1202.50598	-3.81923	1005.34961	1253.20605	71.01466	923.80884	1199.59717	62.79066	912.67938	1221.38928	126.04771	864.77161	1581.48584	-248.54950	1346.33569	1649.87244	-286.72119	1127.19739	1665.34583	-290.11343	1014.51245	1671.89783	-300.39117	877.77759	1643.82947	-285.08109	776.42413	1682.04248	-323.45245	779.75616	1677.22070	-314.08240	705.20221	1291.67175	-186.98636	928.77814	1529.04797	-186.52708	927.29877	1344.31909	-347.52917	958.93170	1492.43896	-347.54865	957.78040	1257.14465	-290.87616	635.27698	1296.38623	-329.00836	462.34570	1293.98083	-428.31699	288.70584	1336.53723	-500.32462	89.68105	1372.59753	-548.10687	63.75972	1359.74622	-356.59940	34.17582	1578.84814	-170.37360	639.89496	1542.20056	-86.60423	482.08371	1547.94080	-81.21426	292.44928	1504.53333	-48.64074	77.83926	1449.92957	-85.12000	40.30165	1490.29407	92.18531	60.10181				1427.54773	-259.27878	1660.90247																		 
110	1.090	1371.12842	-156.64078	1613.54358	1504.19360	-150.78793	1616.37451	1381.82922	-274.57629	1548.95093	1512.20203	-264.17438	1552.06628	1418.53149	-289.77274	1405.53247	1407.88501	-333.43988	1095.13135	1427.21484	-168.63577	1327.57568	1414.43384	-128.51357	1161.94678	1496.05164	-354.22498	1227.75891	1272.85193	-195.72890	1375.78284	1191.91223	-140.07767	1201.41248	1182.52014	-78.03477	1095.40942	1204.13330	14.75346	1008.95288	1255.93542	91.73540	930.29199	1202.49988	84.12591	918.36035	1225.03943	148.88509	872.97046	1582.04297	-234.92819	1344.12927	1649.91907	-274.74445	1125.33264	1665.38574	-279.33636	1012.51569	1671.54883	-291.27478	875.98053	1643.29163	-276.76257	774.33832	1681.48633	-315.09930	778.08142	1676.27661	-306.77661	703.38776	1291.63806	-174.64880	927.03491	1529.04382	-171.81685	924.96240	1345.94385	-334.59641	956.51001	1494.14282	-333.41751	955.45209	1257.33875	-281.16626	634.59418	1296.25940	-321.51074	462.04916	1293.91309	-423.53442	289.70547	1336.61670	-499.15005	92.04721	1372.61414	-547.24078	66.84098	1359.44434	-356.44025	34.07379	1580.60742	-158.28435	636.71912	1542.30432	-72.68096	479.97086	1549.27014	-58.41969	292.27997	1507.69519	-14.71727	79.16512	1452.80908	-49.98457	40.10873	1492.38049	126.71992	65.51881				1427.48218	-244.65572	1659.03662																		 
111	1.100	1372.17505	-142.91086	1611.78210	1505.30383	-137.02039	1614.40527	1382.82410	-260.97711	1547.18958	1513.17322	-250.52132	1550.14014	1419.39783	-276.20465	1403.74475	1409.16223	-319.90945	1093.20715	1427.71936	-155.00049	1325.66406	1414.34033	-114.95179	1160.01794	1496.74341	-340.44339	1225.75354	1273.72839	-182.27234	1374.32874	1192.58179	-125.23505	1200.87476	1183.24304	-62.36890	1095.89526	1205.72754	32.68565	1012.38708	1258.63855	111.62126	936.62488	1205.36670	104.62830	923.93030	1228.63196	170.79974	880.99042	1582.63525	-221.16302	1341.98950	1650.25305	-262.68985	1123.35620	1665.41992	-268.16083	1010.57690	1671.36633	-281.23138	874.08276	1642.73047	-267.95728	772.36835	1681.07678	-306.21869	776.40173	1675.36902	-298.93564	701.63757	1291.63208	-162.21506	925.15900	1529.05664	-156.92154	922.87457	1347.87024	-321.82730	954.48285	1495.97302	-318.90488	953.11914	1257.50110	-271.12567	633.96692	1295.96484	-313.30630	461.56595	1293.93860	-418.41681	290.87558	1336.45435	-497.77301	94.64236	1372.49951	-546.25513	70.31714	1359.49280	-356.33435	33.93893	1582.28955	-146.38469	633.41742	1542.55969	-58.46791	477.92908	1550.69946	-36.59820	292.34607	1510.32031	15.50334	80.94279	1455.50049	-17.52855	40.43875	1494.58215	158.46294	71.91511				1429.96558	-231.98386	1657.70972																		 
